<svg xmlns="http://www.w3.org/2000/svg" xmlns:xlink="http://www.w3.org/1999/xlink" viewBox="0 0 574.23 329.65"><defs><style>.cls-1{fill:none;}.cls-2{isolation:isolate;}.cls-3{fill:#b4dfd5;}.cls-4{fill:#ec7772;}.cls-5{fill:#76a9b7;}.cls-6{fill:#b94a5b;}.cls-7{fill:#92c7d3;}.cls-8{fill:#527480;}.cls-9{fill:#e4f3f7;}.cls-10{fill:#ffbda9;}.cls-11{fill:#ffac92;}.cls-12{fill:#e5af51;}.cls-13{fill:#f29d7e;}.cls-14{fill:#fdd17a;}.cls-15{fill:#e8605c;}.cls-16{fill:#f7f7f7;}.cls-17{fill:#e2dede;}.cls-18{mix-blend-mode:multiply;}.cls-19{fill:#dde6e8;}.cls-20{fill:#b3d6ff;}.cls-21{fill:#fff;opacity:0.5;mix-blend-mode:overlay;}.cls-22{clip-path:url(#clip-path);}.cls-23{fill:#2a514a;}.cls-24{fill:#42b093;}.cls-25{clip-path:url(#clip-path-2);}</style><clipPath id="clip-path" transform="translate(-9.87)"><rect class="cls-1" x="383.5" y="36.08" width="207.89" height="280.98"/></clipPath><clipPath id="clip-path-2" transform="translate(-9.87)"><rect class="cls-1" y="89.83" width="168.12" height="227.23" transform="translate(168.12 406.89) rotate(180)"/></clipPath></defs><title>Ativo 1</title><g class="cls-2"><g id="Camada_2" data-name="Camada 2"><g id="OBJECTS"><path class="cls-3" d="M369.81,111.68a56.1,56.1,0,0,0-98.88,4.94,4.26,4.26,0,0,1-2,2.43c-1.23.46-2.54-.33-3.64-1-17.77-11.55-43.1-9.84-59.14,4-10.46,9-16.71,22.12-19.85,35.57s-3.43,27.36-3.7,41.16a23.68,23.68,0,0,0-23.56,1.58c-6.8,4.67-13.53,22.48-12.71,30.7,66.6,14.68,199.25,20.9,202.22,19.8,3.27-1.2,28.76-49.59,32-74.63,1.29-9.92,2.57-19.95,1.65-29.91s-4.26-20-11.11-27.3C372.54,113.58,369.81,111.68,369.81,111.68Z" transform="translate(-9.87)"/><path class="cls-3" d="M381.7,116a56.11,56.11,0,0,1,94.63,29.13,4.23,4.23,0,0,0,1.33,2.85c1.08.75,2.54.3,3.79-.12,20.06-6.83,44.19,1.07,56.33,18.44,7.91,11.31,10.75,25.55,10.48,39.36s-3.41,27.36-6.54,40.81a23.65,23.65,0,0,1,22.44,7.32c5.44,6.21,7.58,25.13,4.76,32.88-68.16-2.16-198.26-28.78-200.87-30.58-2.87-2-15.67-55.14-12.64-80.2,1.2-9.94,2.42-20,5.77-29.4s9.05-18.35,17.49-23.73C378.6,117.16,381.7,116,381.7,116Z" transform="translate(-9.87)"/><polygon class="cls-4" points="99.31 225.84 549.21 263.92 549.21 317.06 23.23 316.85 21.5 250.06 99.31 225.84"/><path class="cls-5" d="M261.47,243.21l-.38,1.91c-.11.56-.22,1.12-.28,1.68,0,.28-.07.56-.11.85a6.92,6.92,0,0,1-.82,3.19,1.69,1.69,0,0,1-1.44.74,3.8,3.8,0,0,1-3.06-2,6.57,6.57,0,0,1-.64-3V245l-1.51-.38a11.21,11.21,0,0,1-5.4-3l-.49-.51a16.33,16.33,0,0,0-3.65-3l-.58-.32c-.21-.11-.41-.21-.6-.33L239,235.39l8.55,31.95c.47,1.74.93,3.49,1.4,5.23,0,0,70.7-17.4,71.85-17.89h0Z" transform="translate(-9.87)"/><path class="cls-6" d="M249.16,285.05a32.83,32.83,0,0,0,9.59,2.38,28.83,28.83,0,0,0,9.8-1.62c13.46-4.19,26-6.83,38.95-12.22,6.92-2.86,15.3-5.47,22.24-8.29a3.66,3.66,0,0,0,2.24-1.81,2.57,2.57,0,0,0-1.42-2.93c-1.05-.54-7.69-1.13-8.88-1.1-9.54.28-13.56,2.77-22.88,4.83q-15.9,3.51-31.67,7.64c-4.66,1.22-9.37,2.48-14.19,2.6-5.65.13-11.16-1.3-16.66-2.4-3.54-.71-43.61-9.28-46.2-6.07C197.63,272.24,240.06,281.7,249.16,285.05Z" transform="translate(-9.87)"/><path class="cls-7" d="M321.17,260c-1.23.22-67.69,16.95-70.81,17.75L249,272.57c21.34-5.39,69.7-17.26,71.85-17.89C320.93,255.69,321.17,259.86,321.17,260Z" transform="translate(-9.87)"/><path class="cls-8" d="M250.36,277.7l-46.23-9.38c-6.2-1.26-12.42-2.51-18.62-3.78L176,262.62l-12.26-2.49-8-1.62-8.38-1.7c-.56-.11-1.14-.27-1.7-.34l-.19,0a24.9,24.9,0,0,1-1-3.18l-4.23-13q-5.35-16.56-10.73-33.09-6.51-20.13-13.05-40.27l43.85,5.32,20.38,2.48,27.14,3.29c1.39.16,2.84.28,4.29.44a37.22,37.22,0,0,1,5.26.82c3,.73,5.7,2.08,7.4,4.85a11.41,11.41,0,0,1,1.14,2.54c.4,1.48.79,2.95,1.18,4.42l.33,1.26q3.28,12.28,6.57,24.55c.66,2.46,1.32,4.9,2,7.35a3.67,3.67,0,0,1,.27,1c.78,2.9,1.55,5.81,2.33,8.71l9,33.46q.85,3.21,1.72,6.44Z" transform="translate(-9.87)"/><path class="cls-6" d="M452.05,272.89c-19,9.66-50.58,27.64-56,30.54a2.26,2.26,0,0,1-1.42.24c-20.37-3.35-61-12.1-77.91-15.7a2.25,2.25,0,0,1-.31-4.31c17.49-6.53,35.19-12.1,52.61-18.94,1.73-.67,3.37-1.54,4.69-1.47,3.06.13,56.05,3.64,77.51,5.39A2.25,2.25,0,0,1,452.05,272.89Z" transform="translate(-9.87)"/><path class="cls-9" d="M449.51,269.69l-53,24.71L389,297.93l-75.25-12.18-8.28-1.33,59.42-23.33c1.72-.68,3.37-1.54,4.69-1.48,3.6.16,7.26.91,10.83,1.37l41.75,5.26Z" transform="translate(-9.87)"/><polygon class="cls-7" points="375.74 294.32 306.73 283.15 331.12 273.59 400.54 283.62 375.74 294.32"/><polygon class="cls-7" points="403.53 282.09 335.4 271.95 341.75 269.6 409.35 279.58 403.53 282.09"/><polygon class="cls-7" points="412.38 278.56 344.26 268.41 350.61 266.06 418.21 276.04 412.38 278.56"/><polygon class="cls-7" points="421.43 274.53 360.48 265.45 366.16 263.35 426.65 272.28 421.43 274.53"/><path class="cls-10" d="M262,240.29c.05,2.55-1,5-1.3,7.51,0,.16,0,.32-.05.48a7.36,7.36,0,0,1-.36,2,3.82,3.82,0,0,1-3.83,2.38,4,4,0,0,1-3.44-3c-.27-1.06-.1-2.19-.4-3.24a1.4,1.4,0,0,0-.3-.58,1.87,1.87,0,0,0-1-.39c-3.85-.82-6-5-9.55-6.75a9.33,9.33,0,0,1-1.89-1,3.64,3.64,0,0,1-.34-.34l-.93-3.47a.65.65,0,0,0,0-.13c-.76-2.87-1.52-5.72-2.29-8.58a3.78,3.78,0,0,0-.26-1c-.62-2.29-1.24-4.59-1.84-6.88a1.15,1.15,0,0,1,.27-.27c2.27-1.62,7.13-1.4,9.53-.63a28.47,28.47,0,0,1,10.79,6.87,11.26,11.26,0,0,1,2.6,3.49,26.11,26.11,0,0,1,.78,2.51C259.33,233,262,236.37,262,240.29Z" transform="translate(-9.87)"/><path class="cls-11" d="M260.68,248.28a7.36,7.36,0,0,1-.36,2,3.82,3.82,0,0,1-3.83,2.38,4,4,0,0,1-3.44-3c-.27-1.06-.1-2.19-.4-3.24a1.4,1.4,0,0,0-.3-.58,1.87,1.87,0,0,0-1-.39c-3.85-.82-6-5-9.55-6.75a9.33,9.33,0,0,1-1.89-1,3.64,3.64,0,0,1-.34-.34l-.93-3.47a.65.65,0,0,0,0-.13A3.35,3.35,0,0,1,240,233a23.82,23.82,0,0,1,3.06-.51,8.07,8.07,0,0,0,5.29-3.71c.33-.55.67-1.2,1.3-1.35a1.64,1.64,0,0,1,1.62.91c.34.56.52,1.22.9,1.76.67.93,1.83,1.35,2.75,2a3.46,3.46,0,0,1,1.59,3.27,7,7,0,0,1-.91,1.94,2.52,2.52,0,0,0-.31,2.07c.17.4.51.72.67,1.13a2.48,2.48,0,0,1,.09,1.05c-.08,1.17-.37,2.31-.45,3.48a5,5,0,0,0,.77,3.35,2.55,2.55,0,0,0,3.09.9A10.94,10.94,0,0,0,260.68,248.28Z" transform="translate(-9.87)"/><path class="cls-9" d="M314.72,243.4q2-11.49,4-23,.92-5.31,1.84-10.61,2.43-14,4.87-28c.53-3,1.05-6.11,1.81-9.12.49-1.95.87-5,2.34-6.51a4.66,4.66,0,0,1,.73-.6c3.67-2.64,10.86-2.13,14.83-2.11a7.06,7.06,0,0,1,2.2.26,6.23,6.23,0,0,1,2.35,1.7,67,67,0,0,1,7.78,10.31,17.55,17.55,0,0,1,2.34,4.45,35.93,35.93,0,0,1,.76,5.18,17.88,17.88,0,0,0,.43,2c.18.73.4,1.46.62,2.19q2.59,8.63,5.86,17a92.31,92.31,0,0,1,4,11.38c.54,2.17.88,4.38,1.22,6.59q1.88,12.06,3.76,24.13l-2.42-.21h0l-58.75-5.08Z" transform="translate(-9.87)"/><path class="cls-12" d="M376.41,248.74l91.44,7.91h.07a37.61,37.61,0,0,1,.21-13.34c-6,.41-10.67-4.72-15.41-8.4-6-4.65-13.25-7.39-19.62-11.51-7.12-4.62-13.05-10.91-20.15-15.57-5.6-3.67-11.83-6.25-17.68-9.51-6.8-3.79-13.13-8.52-20.42-11.23a20.51,20.51,0,0,0-8.2-1.52c-1.93.1-4.37.6-5.66,1.85a2.91,2.91,0,0,0-.82,2.82,110.79,110.79,0,0,1,1.95,11.31,63.58,63.58,0,0,0,1.81,9.05q4.67,18.57,9.75,37a7.07,7.07,0,0,0,.3.92h0Z" transform="translate(-9.87)"/><path class="cls-6" d="M370.88,75.49a9.74,9.74,0,0,1,4.66,1.85,3.16,3.16,0,0,1,1.1,1.08,3.46,3.46,0,0,1,.29,1.63,17.15,17.15,0,0,1-.8,6,7.78,7.78,0,0,1-3.9,4.53,2.33,2.33,0,0,1-1,.25,2.46,2.46,0,0,1-1.52-.81,11,11,0,0,1-3-6C366,80.16,365.46,75.07,370.88,75.49Z" transform="translate(-9.87)"/><path class="cls-13" d="M339.4,133a18.74,18.74,0,0,0,5.79,4.77c2.15,1.29,5.1,1.59,7.07,0,4.07-3.22,1.8-9.35,4.85-13.55,1.36-1.87,2.59-3.81,4.6-5,4.47-2.55,7.58-7,9.45-11.83s2.65-9.93,3.41-15a6.85,6.85,0,0,0,.05-2.55c-.35-1.44-1.59-2.46-2.61-3.53A15.78,15.78,0,0,1,367.68,75c-1.93-.39-3.72,1-5.18,2.34q-11,10-21.31,20.74c-3.38,3.53-6.71,7.13-10,10.75-3,3.29-4,5.33-1.41,9.28C333,123,336,128.24,339.4,133Z" transform="translate(-9.87)"/><path class="cls-14" d="M336,135.77q-1.74,9.15-3.49,18.3l-2.19,11.52c-.39,2-.77,4.06-1.16,6.08-4.56,23.94-9.12,47.89-13.91,71.78l-.51,0L275.66,240q-1.86-13.46-3.73-26.89c-.5.18-1,.37-1.47.58a31.07,31.07,0,0,0-13.82,11.55,65.73,65.73,0,0,0-5.84-5.22,25.37,25.37,0,0,0-3.9-2.46c-3.72-1.86-8.27-2.51-12-.71l-.7.35-.11-.41-6.57-24.56c0-.09,0-.17-.07-.26a16.38,16.38,0,0,1,3.27-5.21c2.21-2.34,5.15-3.92,7.31-6.32,2.83-3.16,4.06-7.43,6.41-11a65.73,65.73,0,0,1,5.86-6.86c4.15-4.69,7.39-10.09,10.61-15.46a29.27,29.27,0,0,0,2.86-5.67l.06-.2c.63-1.92.89-4,1.9-5.73,1.45-2.49,4.16-3.94,6.8-5.09a4.87,4.87,0,0,0,2.1-1.4l0,0c.66-1,.52-2.23.75-3.37.54-2.77,3.15-4.6,5.6-6a87.3,87.3,0,0,1,18.12-7.75,100.88,100.88,0,0,0,11.44-3.67c3.68-1.58,6-4.71,9.17-6.46,4.15,5.9-.21,15.55-2.91,21.16a8.51,8.51,0,0,0-1.14,3.86c.15,3.52,4.5,5.25,8,5.09s7.21-1.32,10.47,0a3.2,3.2,0,0,1,1.79,1.51A3.93,3.93,0,0,1,336,135.77Z" transform="translate(-9.87)"/><path class="cls-15" d="M315.5,128.71c-.05.55,0,1.25.56,1.41a1.35,1.35,0,0,0,.87-.15c3.74-1.55,7.88-1.73,11.93-1.89l7.41-.3-3.74-5.36a26.46,26.46,0,0,1-1.86-2.94c-1.44-2.81-1.79-6-2.39-9.14a3.45,3.45,0,0,0-.42-1.23,3.5,3.5,0,0,0-1-.92c-1.26-.84-5.3-3.51-6.33-1.56-.36.68,0,2.68-.08,3.52a26.23,26.23,0,0,1-.76,3.73C318.32,118.83,315.9,123.53,315.5,128.71Z" transform="translate(-9.87)"/><path class="cls-14" d="M396.57,214.22c5.47,4.49,10.35,9.66,15.79,14.18a87.39,87.39,0,0,0,48.16,19.67,11.08,11.08,0,0,0,5.13-.44,9.43,9.43,0,0,0,4.19-4.12c4-6.68,4.42-14.9,3.61-22.64s-2.72-15.35-3-23.12c-.18-4.75.24-9.64-1.34-14.13-1.07-3-3-5.7-4.23-8.68a44.51,44.51,0,0,1-2.33-9.76,265.77,265.77,0,0,0-12.28-46.78,22.72,22.72,0,0,0-2.76-5.77,19.76,19.76,0,0,0-7.13-5.55c-8.21-4.28-17.3-6.5-26.29-8.68l-18.65-4.51a6.07,6.07,0,0,0-3.67-.13c-1.37.53-2.16,1.94-2.9,3.21a45.38,45.38,0,0,1-17.24,16.83c-4.24,2.34-8.9,4-12.58,7.17s-6.19,8.4-4.33,12.87c1.28,3.08,4.25,5,6.67,7.33a25.51,25.51,0,0,1,.83,36.2c-1.82,1.9-9.81,5.12-8.13,8.17.81,1.47,4.82,3.3,6.13,4.32q2.4,1.88,4.92,3.61c6.68,4.62,13.78,8.59,20.61,13A116.71,116.71,0,0,1,396.57,214.22Z" transform="translate(-9.87)"/><path class="cls-12" d="M357,176.55a48,48,0,0,0-3.21,7.82c.09,2.56,2.43-.3,3.44-1a17.18,17.18,0,0,0,5-5.56,1.84,1.84,0,0,0,.26-1.75,1.62,1.62,0,0,0-1-.64,4.51,4.51,0,0,0-4.48,1.23" transform="translate(-9.87)"/><path class="cls-15" d="M375.06,123.86c3.25,3,6.27,6.36,10.21,8.33a127.48,127.48,0,0,0,6.11-33,22.6,22.6,0,0,0-.12-4.58,12,12,0,0,0-2-5A24.21,24.21,0,0,0,384.4,85l-7.47-6a47.27,47.27,0,0,0-2.44,9.33,100.61,100.61,0,0,1-5.27,17.32c-1.13,2.8-2.4,5.55-3.78,8.23-.34.66-2.1,3-1.77,3.74s2.78.81,3.48,1A23.54,23.54,0,0,1,375.06,123.86Z" transform="translate(-9.87)"/><path class="cls-11" d="M339.55,127a10.15,10.15,0,0,1-.71-3.67,3.91,3.91,0,0,1,1.66-3.21c1.69-1.06,3.95-.16,5.43,1.18,2,1.83,3.25,4.37,4.42,6.84l1.89,4a1.07,1.07,0,0,1,.14.91,1.13,1.13,0,0,1-.76.45l-3.43.87a7.32,7.32,0,0,1-5.76-.92C340.79,132.36,340.15,128.71,339.55,127Z" transform="translate(-9.87)"/><path class="cls-16" d="M346.21,140.83a73.21,73.21,0,0,1,.94,12,21.41,21.41,0,0,1-.76,6.33,8.94,8.94,0,0,1-3.67,5.06,8.14,8.14,0,0,1-.77.41,17.83,17.83,0,0,1-2.86,1c-5.83,1.59-11.8,3.2-17.83,2.81a11.18,11.18,0,0,1-2.82-.48,13.18,13.18,0,0,1-3.77-2.33l-.14-.11a4.32,4.32,0,0,1-1-1,4.55,4.55,0,0,1-.54-2.07c-.3-3.23-.61-6.46-.91-9.69-.18-1.88-.35-3.76-.42-5.64-.06-1.51,0-3,0-4.53,0-3.6.07-7.2.1-10.81a1,1,0,0,1,.11-.55,1.07,1.07,0,0,1,.59-.34c1.16,0,2.73-.81,3.88-1.1,1.31-.34,2.62-.63,3.94-.89a74.17,74.17,0,0,1,14.56-1.42c1.49,0,3.45-.26,4.65.83s2,3.35,2.83,4.86c1.51.3,3.46.64,5,.93.41,1.45-1,2.85-1.22,4.35A8.77,8.77,0,0,0,346.21,140.83Z" transform="translate(-9.87)"/><path class="cls-17" d="M342,164.64a17.83,17.83,0,0,1-2.86,1c-5.83,1.59-11.8,3.2-17.83,2.81a11.18,11.18,0,0,1-2.82-.48,13.18,13.18,0,0,1-3.77-2.33,58.47,58.47,0,0,1,17-3.1,21.07,21.07,0,0,1,6.34.43A16.41,16.41,0,0,1,342,164.64Z" transform="translate(-9.87)"/><path class="cls-10" d="M347.25,134.1a7.83,7.83,0,0,0-4.28,6.43,6.92,6.92,0,0,1-.07,1.44,7.26,7.26,0,0,1-.49,1.19,6.35,6.35,0,0,0,2.4,7.75,4.66,4.66,0,0,0-.66,8.27c-2.06.85-3.75,3-3.33,5.2.46,2.4,3.06,3.71,5.41,4.39s5,1.24,6.43,3.22c.91,1.26,1.25,3,2.56,3.81.88.54,2,.55,2.86,1.14.36.26.64.6,1,.87a3.93,3.93,0,0,0,3.3.6,7.86,7.86,0,0,0,3-1.65,27,27,0,0,0,4.07-4.34c3.39-4.33,6.43-9.41,6.19-14.9a28,28,0,0,0-.6-4.16q-1-5-2-10a8.81,8.81,0,0,0-.56-2,7,7,0,0,0-1.27-1.8,20.89,20.89,0,0,0-11.15-6.37C356,132.3,351.06,132,347.25,134.1Z" transform="translate(-9.87)"/><path class="cls-10" d="M303,43q-.18,6-.37,12a26.67,26.67,0,0,0,.39,7c.5,2.09,1.49,4,1.95,6.13.56,2.59.3,5.28.49,7.92a41,41,0,0,0,3,11.47c2.49,6.6,5.37,13.16,9.77,18.66,2.88,3.61,6.85,6.91,11.47,6.9s8.59-3.31,11.68-6.77c7.5-8.41,14.54-17.25,22.59-25.3,2.62-2.62,6-3.17,8.53-6.95a36.09,36.09,0,0,0,4.76-11.67c.76-3.17,1.1-6.72-.58-9.51s-6.11-4-8.25-1.54a5.49,5.49,0,0,1-.72.81,2.43,2.43,0,0,1-3.14-.5,7.24,7.24,0,0,1-1.43-3.16,152.5,152.5,0,0,0-6-17.66c-2.4-5.81-5.4-11.75-10.65-15.19a18,18,0,0,0-20.53.94c-2.82,2.24-5,5.38-8.23,6.93s-9.23,1.33-11.6,4.08C302.87,31.28,303.13,38.44,303,43Z" transform="translate(-9.87)"/><path class="cls-12" d="M274.64,129.06a22.27,22.27,0,0,1-1.94,9.28c-1,2.26-2.4,4.33-3.44,6.58a23.41,23.41,0,0,0-2,7.29c-.28,2.47-.2,5.12-1.55,7.21a89.71,89.71,0,0,1-1.86-17c0-.37,0-.75,0-1.13.63-1.92.89-4,1.9-5.73,1.45-2.49,4.16-3.94,6.8-5.09a4.87,4.87,0,0,0,2.1-1.4Z" transform="translate(-9.87)"/><path class="cls-12" d="M270.46,213.72a31.07,31.07,0,0,0-13.82,11.55,65.73,65.73,0,0,0-5.84-5.22c0-.2,0-.41,0-.61,0-1.73.09-3.64,1.3-4.86,1-1.06,2.65-1.32,3.87-2.18,2.38-1.69,2.56-5.35,1.19-7.93s-3.87-4.34-6.28-6a55,55,0,0,1,9.14.85c2.93.52,6,1.41,7.92,3.68A14.17,14.17,0,0,1,270.46,213.72Z" transform="translate(-9.87)"/><line class="cls-1" x1="305.36" y1="243.45" x2="304.85" y2="243.4"/><path class="cls-15" d="M374.49,50.55c-3.18-1-6.7,1-8.39,3.89s-1.92,6.36-1.81,9.69c-1.23.67-2.84-.21-3.48-1.46a8.8,8.8,0,0,1-.56-4.12,54.44,54.44,0,0,0-.73-9.46,7,7,0,0,0-1-3c-.84-1.15-2.26-1.71-3.33-2.65-4-3.49-2.09-10.65-5.75-14.47-2.59-2.69-6.86-2.61-10.58-2.21q-7.23.78-14.37,2.19c-3.76.74-7.74,1.59-11.35.3a14.9,14.9,0,0,0-2.9-.95,4.86,4.86,0,0,0-3.29.37,6.1,6.1,0,0,0-2.95,4,30.78,30.78,0,0,0-.94,7.77c0,1,0,2.22-.07,3.39-.79.74-1.52.51-2.79-.68-3.93-3.68-1.64-13.24-.5-17.74a16.16,16.16,0,0,1,1.93-4.89,33.67,33.67,0,0,1,4.45-4.81c2.31-2.42,4.1-5.29,6.42-7.69,5.44-5.6,13.5-8.15,21.3-8s15.38,2.7,22.39,6.11a35.64,35.64,0,0,1,9.54,6.26c4.8,4.7,7.19,11.4,8.13,18.05S374.4,43.83,374.49,50.55Z" transform="translate(-9.87)"/><path d="M366.94,53.26c-3,0-6.07-.17-9.11-.13-2.87,0-5.66-.42-8.52-.44a.62.62,0,0,0-.4.14.81.81,0,0,0-.36-.12,99.4,99.4,0,0,0-12.31.93c-2.72.27-5.76,1.1-8.51,1.17a.58.58,0,0,0-.45-.13,64.19,64.19,0,0,1-7.21.29.66.66,0,0,0-.76-.37c-4.06.94-8.08-.3-12.17-.43-1.65-.05-3.08-.4-4.07.85-1.45,1.86-.94,5.79-.87,7.94.06,1.87.2,3.92,1.51,5.4,3,3.43,9.9,2.57,13.11-.06s4.53-7.88,3.63-12c2,0,4,0,6-.21,0,3.4,0,7.15,1.91,10.08s5.52,4.25,8.88,4.41c9,.43,12.45-8.84,12-16.56h0c2.85,0,5.65.46,8.52.43,3,0,6.07.12,9.11.14A.69.69,0,0,0,366.94,53.26ZM315.38,67.67c-4.06,2.68-11.22,2.11-11.76-3.56a32.49,32.49,0,0,1,0-5.22c.05-.77.08-2.77.77-3.29.48-.37,2.26-.07,2.79-.05,4,.1,7.85,1.19,11.82.5C320,59.89,318.78,65.43,315.38,67.67Zm30.12-2.48c-2.74,4.43-8.84,5.1-13.22,2.75s-4.45-7.39-4.45-11.76c1.83-.1,3.76-.66,5.58-.87q4.23-.48,8.48-.91a19.85,19.85,0,0,1,4-.32c2,.22,1.86.08,2.07,1.85C348.24,58.43,346.85,63,345.5,65.19Z" transform="translate(-9.87)"/><g class="cls-18"><path class="cls-19" d="M266.1,177c-11.39-1.73-94-9.09-94.23-9.2s-.35-.36-.46-.66c-.43-1.12-26-79.49-26.49-80.83,12.11.87,87.13,6,89.82,6.77A9.25,9.25,0,0,1,240,96.82C240.79,98,265.67,175.67,266.1,177Z" transform="translate(-9.87)"/><polygon class="cls-20" points="145.85 96.29 154.67 123.28 234.02 130.26 224.66 101.64 145.85 96.29"/><polygon class="cls-20" points="156.55 129.06 158.61 135.33 237.71 141.57 235.68 135.35 156.55 129.06"/><polygon class="cls-20" points="160 139.59 162.3 146.61 241.72 153.84 239.15 145.96 160 139.59"/><polygon class="cls-20" points="163.95 151.68 167.29 161.9 202.07 165.37 198.57 154.7 163.95 151.68"/><polygon class="cls-20" points="205.21 155.14 208.61 165.46 246.72 169.16 243.23 158.46 205.21 155.14"/></g><path class="cls-21" d="M309.39,121.23c-4.84.09-9.54,1.85-14.38,2a5.16,5.16,0,0,1-2.28-.35c-2.22-1.06-2-4.52-.38-6.35s4.13-2.6,6.29-3.78,4.25-3.27,3.95-5.72c-.23-1.86-1.8-3.29-3.47-4.16-5.58-2.92-12.32-1.36-18.54-.36a92.7,92.7,0,0,1-12.22,1.15c-5.07.14-10.51-.25-14.56-3.32a7.48,7.48,0,0,1-3.24-5.16c-.19-2.56,1.52-4.91,3.55-6.48,3.87-3,8.95-4,13.85-4.14s9.77.65,14.67.78c10.39.28,20.65-2.19,31-2.87,1.59-.1,3.78.43,3.65,2a2.31,2.31,0,0,1-.58,1.22c-3.33,4.13-10.67,3.42-13.47,7.92,6.5,2.75,13.9,1.08,21,1.17,2.4,0,5.25.59,6.18,2.81a4.57,4.57,0,0,1-1.2,4.75A13.37,13.37,0,0,1,324.8,105l-9.16,4.15c-1.59.72-3.44,1.83-3.38,3.58s1.81,2.64,3.41,2.85,3.27-.09,4.82.36a7,7,0,0,1,4.39,4.86,20.81,20.81,0,0,1,.51,6.78c-5,1.38-3.83-.38-7.05-3.35A13.06,13.06,0,0,0,309.39,121.23Z" transform="translate(-9.87)"/><g class="cls-22"><path class="cls-23" d="M532.56,323.54c.54-8.25-.51-16.49-1.13-24.71-.15-2-.25-3.95-.31-5.9a.65.65,0,0,0,.35-.1c5.25-3.75,9.25-9.95,12.9-15.15a92.66,92.66,0,0,0,6.33-10.09c.93-1.8,2.2-4,2.09-6.06,0-1-1.56-1-1.51,0,.22,4.09-4.15,9.35-6.27,12.54a109.15,109.15,0,0,1-11.42,14.79c-.47.51-1.42,1.86-2.11,2.06a1,1,0,0,1-.39,0,108.45,108.45,0,0,1,1.38-18.86c1.41-8.71,2.88-17.34,2.41-26.2,0-.24,0-.5,0-.74,4.94-3.8,7.42-10.85,9.92-16.25,3.67-8,6.79-17.06,12.27-24,.59-.75-.47-1.83-1.07-1.07-5.17,6.52-8,14.79-11.57,22.25-1.21,2.55-5.8,14.63-9.67,17.08a187.73,187.73,0,0,0-2.86-23.6c-1.89-9.83-5.62-19.15-8.81-28.61,8.37-7.27,9.13-20.6,14.58-29.75a.76.76,0,0,0-1.31-.76c-5.27,8.86-6.07,21.68-13.78,28.95a107.49,107.49,0,0,1-4.24-16.39c-3-18.61,2.29-37.84,8-55.41,2.86-8.76,6.74-17.55,7.75-26.79,1.1-10.11-2.85-19.53-3.48-29.5-.06-1-1.57-1-1.51,0,.56,8.87,4,17.39,3.71,26.34S529,105,526.2,113.25c-5.63,16.75-11,34.6-10.18,52.47a85.21,85.21,0,0,0,4.29,21.56c-3.8-5.53-8.34-10.54-12.61-15.7-4.94-6-11.73-11.17-14.43-18.64-.33-.91-1.79-.52-1.45.4,2.44,6.76,8,11.67,12.72,16.88,5.93,6.59,12.09,13.6,16.67,21.21a.71.71,0,0,0,.56.36c2.22,6.58,4.67,13.11,6.58,19.77,2.55,8.88,3.45,18.06,4.42,27.22.18,1.63.29,3.23.38,4.83a1.36,1.36,0,0,1-.47-.15c-1.78-.91-3.49-3.3-4.82-4.77-1.55-1.73-3-3.53-4.46-5.35-3-3.79-5.78-7.72-8.91-11.4-6.55-7.69-15.09-13.24-22.75-19.71-.73-.62-1.81.44-1.06,1.07,7.82,6.6,16.51,12.27,23.14,20.18,6.29,7.52,11.51,16,19.19,22.21a.77.77,0,0,0,.25.14,111.85,111.85,0,0,1-1.56,21.68,139.2,139.2,0,0,0-2.16,22.74,22.42,22.42,0,0,1-2.54-2.51c-3.13-3.28-5.61-7.1-8.35-10.69-5.53-7.27-12.7-13.32-16.7-21.68-.42-.87-1.72-.11-1.31.76,3.63,7.57,9.82,13.3,15.11,19.66,4.56,5.48,8.07,11.84,13.79,16.2q0,1.77.15,3.57c.58,9.31,2,18.64,1.36,28a1.27,1.27,0,0,0,0,.29l1.4,0A.56.56,0,0,0,532.56,323.54Z" transform="translate(-9.87)"/><path class="cls-24" d="M581.28,239.5c6.33-12.65,1-26.59-6.27-37.58-12.45-18.78-35.69-34.77-32-60.15,1.83-12.69,9.18-23.71,12.83-35.85a77.66,77.66,0,0,0,.58-42.54c-1.65-6.07-4-12.33-8.29-17-5.28-5.75-13-7.15-20.39-5.26C515.19,44.26,505.66,55,503.12,67.5c-2.61,12.84.88,25.94.33,38.87-.49,11.57-5.2,20.9-12.36,29.78-7.85,9.76-16.59,18.65-20.18,31-3.84,13.19-1.88,26.55,4.17,38.71,5,10,11.83,19.74,12.91,31.18,1.2,12.72-5.85,24.16-9.25,36a43.76,43.76,0,0,0-1.61,12.82c1,25.88,27.5,37.5,51.7,38,.76,0,1.51,0,2.26,0a1.27,1.27,0,0,1,0-.29c.61-9.34-.78-18.67-1.36-28q-.11-1.8-.15-3.57c-5.72-4.36-9.23-10.72-13.79-16.2-5.29-6.36-11.48-12.09-15.11-19.66-.41-.87.89-1.63,1.31-.76,4,8.36,11.17,14.41,16.7,21.68,2.74,3.59,5.22,7.41,8.35,10.69a22.42,22.42,0,0,0,2.54,2.51,139.2,139.2,0,0,1,2.16-22.74,111.85,111.85,0,0,0,1.56-21.68.77.77,0,0,1-.25-.14c-7.68-6.25-12.9-14.69-19.19-22.21-6.63-7.91-15.32-13.58-23.14-20.18-.75-.63.33-1.69,1.06-1.07,7.66,6.47,16.2,12,22.75,19.71,3.13,3.68,5.93,7.61,8.91,11.4,1.44,1.82,2.91,3.62,4.46,5.35,1.33,1.47,3,3.86,4.82,4.77a1.36,1.36,0,0,0,.47.15c-.09-1.6-.2-3.2-.38-4.83-1-9.16-1.87-18.34-4.42-27.22-1.91-6.66-4.36-13.19-6.58-19.77a.71.71,0,0,1-.56-.36c-4.58-7.61-10.74-14.62-16.67-21.21-4.69-5.21-10.28-10.12-12.72-16.88-.34-.92,1.12-1.31,1.45-.4,2.7,7.47,9.49,12.69,14.43,18.64,4.27,5.16,8.81,10.17,12.61,15.7A85.21,85.21,0,0,1,516,165.72c-.86-17.87,4.55-35.72,10.18-52.47,2.79-8.3,6.32-16.69,6.6-25.56s-3.15-17.47-3.71-26.34c-.06-1,1.45-1,1.51,0,.63,10,4.58,19.39,3.48,29.5-1,9.24-4.89,18-7.75,26.79-5.74,17.57-11.05,36.8-8,55.41a107.49,107.49,0,0,0,4.24,16.39c7.71-7.27,8.51-20.09,13.78-28.95a.76.76,0,0,1,1.31.76c-5.45,9.15-6.21,22.48-14.58,29.75,3.19,9.46,6.92,18.78,8.81,28.61a187.73,187.73,0,0,1,2.86,23.6c3.87-2.45,8.46-14.53,9.67-17.08,3.54-7.46,6.4-15.73,11.57-22.25.6-.76,1.66.32,1.07,1.07-5.48,6.9-8.6,16-12.27,24-2.5,5.4-5,12.45-9.92,16.25,0,.24,0,.5,0,.74.47,8.86-1,17.49-2.41,26.2A108.45,108.45,0,0,0,531.09,291a1,1,0,0,0,.39,0c.69-.2,1.64-1.55,2.11-2.06A109.15,109.15,0,0,0,545,274.07c2.12-3.19,6.49-8.45,6.27-12.54,0-1,1.46-1,1.51,0,.11,2.09-1.16,4.26-2.09,6.06a92.66,92.66,0,0,1-6.33,10.09c-3.65,5.2-7.65,11.4-12.9,15.15a.65.65,0,0,1-.35.1c.06,1.95.16,3.91.31,5.9.62,8.22,1.67,16.46,1.13,24.71a.56.56,0,0,1-.07.26l1,0a65.38,65.38,0,0,0,16.46-2.66c9.16-2.83,18.23-8.33,23.55-16.48,7.89-12.1-.14-23.7-2.5-36a23.44,23.44,0,0,1,1.32-14C574.63,249.18,578.65,244.74,581.28,239.5Z" transform="translate(-9.87)"/><path class="cls-24" d="M489.88,311a1.49,1.49,0,0,0,.12-.14c2.07-3.18,3-7.35,3.93-11,.7-2.75,2.27-7.14,1.18-10-.34-.9-1.8-.51-1.45.4.87,2.27-.35,5.7-.88,7.94a60.58,60.58,0,0,1-3,9.76,5.5,5.5,0,0,1-.61,1.17c-2.38-6.14-2.93-12.68-4.78-19-.54-1.86-1.19-3.68-1.91-5.47,1.54-2.77,1.64-6.34,1.88-9.4.43-5.31.31-11,1.86-16.15a.76.76,0,0,0-1.46-.4c-1.36,4.49-1.29,9.31-1.7,13.95-.18,2-.27,4-.52,6a20.39,20.39,0,0,1-.64,3.47l-.21.69c-3.68-8.33-9.1-15.87-14.86-22.84l-1.32-1.61c2.74-5.62.76-12.47,1.77-18.44.16-.95-1.29-1.36-1.46-.4-.93,5.55.85,12.21-1.36,17.52a47.72,47.72,0,0,1-7.72-13c-2.48-6.84-3.41-14.17-3.85-21.4-.37-6,.1-12.29-1.09-18.23-1.25-6.18-5.45-10.79-8-16.38-.4-.88-1.7-.11-1.3.76,3.09,6.67,7.63,11.68,8.32,19.3.6,6.65.33,13.35,1,20,1.1,10.37,4,19.33,9.8,27.63-2.67-1.73-5.48-3.26-8.25-4.82-3.85-2.17-8.35-3.66-11.34-7.05-.65-.72-1.71.35-1.07,1.07,2.67,3,6.43,4.51,9.92,6.34a84.58,84.58,0,0,1,13.09,8,1,1,0,0,0,.43.18c6.16,7.74,12.21,15.52,16.14,24.57l-.15-.09c-2.06.21-6.17-3.15-7.9-4.23-2.22-1.38-4.4-2.85-6.74-4-4.74-2.41-10-3.64-15-5.4-.92-.33-1.31,1.13-.4,1.45,5.71,2,11.6,3.43,16.87,6.51,4.59,2.69,8.87,5.8,13.93,7.58h.1q.93,2.32,1.65,4.77c1.81,6.2,2.39,12.61,4.66,18.67-.43-.23-1-.56-1.74-1-2.2-1.13-4.18-2.63-6.29-3.93-4.25-2.6-9-4.39-12.64-7.85-.7-.66-1.77.4-1.06,1.07,3.2,3,7.13,4.86,11,6.94s7.24,5,11.43,6.35c2.18,5.22,5.18,10.79,6.95,16.16a3.47,3.47,0,0,0,1.4-.54C494.87,321.14,492.1,316.2,489.88,311Z" transform="translate(-9.87)"/><path class="cls-23" d="M513.84,302.84c-1.59-5.75-7.14-9.29-9.44-14.7-2.8-6.58,1.83-12.94.69-19.62-1.18-6.91-7.07-12.06-12.65-15.7-9.13-5.95-21.38-9.81-25.79-20.8-2.71-6.77-1.36-14.19-1.26-21.26a44,44,0,0,0-5.67-22.43c-4.45-7.81-12.43-16.38-21.79-9.74-7.12,5-9,14.13-6.57,22.13,1.92,6.25,5.62,11.8,7.37,18.11,1.7,6.15.66,12-1.37,17.91-2.56,7.45-5.36,14.49-3.86,22.51,1.37,7.36,5.54,13,11,17.87,4.5,4,9.58,7.91,11.89,13.68,2.54,6.31,1.3,13.33,1.76,19.94,2,19,21.69,22,37,16.34l-.21-.61c-1.77-5.38-4.56-10.33-6.74-15.55-4.19-1.39-7.58-4.25-11.43-6.35s-7.75-3.94-11-6.94c-.71-.67.36-1.73,1.06-1.07,3.69,3.46,8.39,5.25,12.64,7.85,2.11,1.3,4.09,2.8,6.29,3.93.75.39,1.31.72,1.74,1-2.27-6.06-2.85-12.47-4.66-18.67q-.72-2.44-1.65-4.77h-.1c-5.06-1.78-9.34-4.89-13.93-7.58-5.27-3.08-11.16-4.49-16.87-6.51-.91-.32-.52-1.78.4-1.45,5,1.76,10.22,3,15,5.4,2.34,1.18,4.52,2.65,6.74,4,1.73,1.08,5.84,4.44,7.9,4.23l.15.09c-3.93-9.05-10-16.83-16.14-24.57a1,1,0,0,1-.43-.18,84.58,84.58,0,0,0-13.09-8c-3.49-1.83-7.25-3.32-9.92-6.34-.64-.72.42-1.79,1.07-1.07,3,3.39,7.49,4.88,11.34,7.05,2.77,1.56,5.58,3.09,8.25,4.82-5.84-8.3-8.7-17.26-9.8-27.63-.71-6.66-.44-13.36-1-20-.69-7.62-5.23-12.63-8.32-19.3-.4-.87.9-1.64,1.3-.76,2.59,5.59,6.79,10.2,8,16.38,1.19,5.94.72,12.21,1.09,18.23.44,7.23,1.37,14.56,3.85,21.4a47.72,47.72,0,0,0,7.72,13c2.21-5.31.43-12,1.36-17.52.17-1,1.62-.55,1.46.4-1,6,1,12.82-1.77,18.44l1.32,1.61c5.76,7,11.18,14.51,14.86,22.84l.21-.69a20.39,20.39,0,0,0,.64-3.47c.25-2,.34-4,.52-6,.41-4.64.34-9.46,1.7-13.95a.76.76,0,0,1,1.46.4c-1.55,5.11-1.43,10.84-1.86,16.15-.24,3.06-.34,6.63-1.88,9.4.72,1.79,1.37,3.61,1.91,5.47,1.85,6.3,2.4,12.84,4.78,19a5.5,5.5,0,0,0,.61-1.17,60.58,60.58,0,0,0,3-9.76c.53-2.24,1.75-5.67.88-7.94-.35-.91,1.11-1.3,1.45-.4,1.09,2.84-.48,7.23-1.18,10-.92,3.62-1.86,7.79-3.93,11a1.49,1.49,0,0,1-.12.14c2.22,5.18,5,10.12,6.69,15.52.68-.28,1.34-.6,2-.91a33.51,33.51,0,0,0,7.74-5C511.12,316.4,515.68,309.48,513.84,302.84Z" transform="translate(-9.87)"/></g><g class="cls-25"><path class="cls-24" d="M54.68,303.92l-.18-.05c-3.73-1.66-7-4.87-10-7.59-2.24-2.07-6.23-5.11-6.91-8.31-.22-1,1.32-1.51,1.54-.49.55,2.56,3.66,4.94,5.45,6.64a63.79,63.79,0,0,0,8.45,7,6.25,6.25,0,0,0,1.24.7c-1.46-6.93-4.79-13.16-6.82-19.91A60.8,60.8,0,0,1,46,275.88c-3-1.59-5.2-4.75-7.21-7.37C35.28,264,32,258.74,27.64,255c-.8-.67.27-1.88,1.07-1.21,3.86,3.25,6.62,7.63,9.72,11.57,1.33,1.7,2.58,3.45,4,5.09A23.48,23.48,0,0,0,45,273.25l.6.49c-1.56-9.66-1.11-19.64,0-29.29.09-.75.17-1.49.25-2.23-5.76-3.46-8-10.79-12.41-15.59-.7-.77.37-2,1.08-1.22,4.09,4.46,6.39,11.51,11.5,15a51.5,51.5,0,0,0-.66-16.24c-1.77-7.62-5.24-14.78-9.07-21.55-3.2-5.65-7.31-11-9.71-17.08-2.5-6.3-1.42-12.92-2.36-19.47-.15-1,1.47-1.11,1.62-.08,1.13,7.82,0,15,3.82,22.27,3.36,6.35,7.52,12.24,10.79,18.65,5.08,10,7.76,19.75,7.36,30.66,1.4-3.13,3-6.15,4.62-9.19,2.2-4.21,5.37-8.19,6.09-13,.16-1,1.74-.69,1.59.34-.64,4.28-3.15,7.83-5.23,11.53a90.79,90.79,0,0,0-7.14,14.84,1.07,1.07,0,0,1-.28.41c-1,10.59-1.91,21.15-.15,31.61a.8.8,0,0,0,.08-.16c2-1,3.72-6.46,4.65-8.45,1.19-2.54,2.3-5.15,3.71-7.58,2.86-5,6.85-9.13,10.32-13.65.64-.83,1.84.26,1.21,1.08-4,5.17-8.45,9.89-11.39,15.76-2.56,5.12-4.59,10.42-8.11,15l-.09.07c.36,1.76.79,3.52,1.31,5.27,2,6.65,5.24,12.77,6.74,19.56.26-.46.57-1.08,1-1.87,1.32-2.31,2.22-4.84,3.37-7.23,2.3-4.84,5.49-9.21,6.78-14.49.25-1,1.84-.68,1.59.33-1.12,4.59-3.58,8.57-5.8,12.69s-3.63,8.71-6.58,12.42c1.09,6,1.65,12.76,3.21,18.64a3.57,3.57,0,0,1-1.59.33C56.13,316,55.72,309.89,54.68,303.92Z" transform="translate(-9.87)"/><path class="cls-23" d="M28.29,310.6c-1.94-6.12,1-12.57-.11-18.79-1.33-7.57-9.23-10.6-12.12-17.28-3-6.93-.7-15,2.2-21.57,4.74-10.72,13.52-21.38,11-33.87-1.52-7.7-7.09-13.59-11.32-19.9a47.39,47.39,0,0,1-8-23.55c-.57-9.66,1.6-22.06,13.93-21.56,9.38.38,16.42,7.45,18.9,16.1,1.93,6.76,1.85,13.93,4,20.64,2.07,6.54,6.43,11.19,11.74,15.35,6.67,5.22,13.32,9.92,16.67,18,3.08,7.44,2.63,15,.55,22.57-1.7,6.25-4,12.74-2.71,19.3,1.42,7.18,6.65,12.78,10.11,19,9.37,18.29-6.65,32.55-23.77,36.42-.06-.22-.11-.45-.17-.67-1.56-5.89-2-12-3-18,3-3.71,4.33-8.28,6.58-12.42s4.68-8.1,5.8-12.69c.25-1-1.34-1.35-1.59-.33-1.29,5.28-4.48,9.65-6.78,14.49-1.15,2.39-2,4.92-3.37,7.23-.45.79-.76,1.41-1,1.87C54.25,294.22,51,288.1,49,281.45c-.52-1.75-.95-3.51-1.31-5.27l.09-.07c3.52-4.58,5.55-9.88,8.11-15,2.94-5.87,7.43-10.59,11.39-15.76.63-.82-.57-1.91-1.21-1.08-3.47,4.52-7.46,8.7-10.32,13.65-1.41,2.43-2.52,5-3.71,7.58-.93,2-2.67,7.43-4.65,8.45a.8.8,0,0,1-.08.16c-1.76-10.46-.87-21,.15-31.61a1.07,1.07,0,0,0,.28-.41,90.79,90.79,0,0,1,7.14-14.84c2.08-3.7,4.59-7.25,5.23-11.53.15-1-1.43-1.38-1.59-.34-.72,4.81-3.89,8.79-6.09,13-1.59,3-3.22,6.06-4.62,9.19.4-10.91-2.28-20.67-7.36-30.66-3.27-6.41-7.43-12.3-10.79-18.65C25.82,181,27,173.81,25.85,166c-.15-1-1.77-1-1.62.08.94,6.55-.14,13.17,2.36,19.47C29,191.6,33.1,197,36.3,202.62c3.83,6.77,7.3,13.93,9.07,21.55A51.5,51.5,0,0,1,46,240.41c-5.11-3.49-7.41-10.54-11.5-15-.71-.77-1.78.45-1.08,1.22,4.41,4.8,6.65,12.13,12.41,15.59-.08.74-.16,1.48-.25,2.23-1.11,9.65-1.56,19.63,0,29.29l-.6-.49a23.48,23.48,0,0,1-2.61-2.76c-1.39-1.64-2.64-3.39-4-5.09-3.1-3.94-5.86-8.32-9.72-11.57-.8-.67-1.87.54-1.07,1.21,4.39,3.7,7.64,8.93,11.14,13.47,2,2.62,4.19,5.78,7.21,7.37a60.8,60.8,0,0,0,1.48,6.06c2,6.75,5.36,13,6.82,19.91a6.25,6.25,0,0,1-1.24-.7,63.79,63.79,0,0,1-8.45-7c-1.79-1.7-4.9-4.08-5.45-6.64-.22-1-1.76-.52-1.54.49.68,3.2,4.67,6.24,6.91,8.31,3,2.72,6.25,5.93,10,7.59l.18.05c1,6,1.45,12.05,3.07,17.91-.78.15-1.55.25-2.33.35a36.09,36.09,0,0,1-9.9,0C38.7,321.22,30.53,317.65,28.29,310.6Z" transform="translate(-9.87)"/><path class="cls-23" d="M78.86,320.8c.4-6.68,2.07-13.18,3.4-19.72.32-1.57.59-3.14.84-4.7a.51.51,0,0,1-.27-.11c-3.84-3.54-6.42-8.92-8.83-13.46a75.33,75.33,0,0,1-4.06-8.74c-.57-1.53-1.36-3.4-1.06-5.07.14-.77,1.35-.62,1.21.15-.59,3.27,2.38,7.93,3.76,10.7a89.47,89.47,0,0,0,7.67,13c.34.45,1,1.63,1.49,1.87a1.07,1.07,0,0,0,.32.07,89.08,89.08,0,0,0,.79-15.28c-.26-7.13-.56-14.2.7-21.26,0-.2.08-.4.11-.6-3.58-3.54-4.86-9.44-6.32-14-2.14-6.76-3.73-14.37-7.43-20.46-.4-.67.56-1.42,1-.75,3.49,5.74,5,12.67,7,19,.72,2.18,3.19,12.33,6,14.69a152.74,152.74,0,0,1,4.68-18.65c2.51-7.7,6.43-14.8,9.95-22.08-6-6.67-5.25-17.44-8.7-25.33a.61.61,0,0,1,1.12-.48c3.34,7.64,2.69,18,8.15,24.62a87.81,87.81,0,0,0,5-12.73c4.3-14.62,2-30.59-.86-45.27-1.41-7.32-3.64-14.76-3.52-22.27.14-8.23,4.26-15.39,5.77-23.33.14-.76,1.36-.62,1.21.15-1.35,7.07-4.95,13.56-5.63,20.77s1.32,14.23,2.72,21.18c2.82,14,5.37,28.87,2.88,43.12a69,69,0,0,1-5.62,16.87c3.61-4,7.75-7.62,11.7-11.33,4.57-4.28,10.54-7.78,13.46-13.5.35-.7,1.48-.24,1.13.47-2.64,5.17-7.62,8.55-11.91,12.26-5.43,4.69-11.08,9.69-15.52,15.34a.56.56,0,0,1-.48.23c-2.45,5.06-5.08,10.05-7.28,15.2-2.94,6.87-4.59,14.14-6.29,21.4-.3,1.28-.56,2.56-.79,3.84a1.36,1.36,0,0,0,.39-.08c1.52-.55,3.14-2.3,4.35-3.34,1.42-1.23,2.78-2.53,4.12-3.85,2.77-2.73,5.42-5.61,8.3-8.24,6-5.51,13.44-9.11,20.24-13.53.65-.42,1.41.54.75,1-7,4.51-14.49,8.18-20.61,13.86-5.8,5.4-10.84,11.65-17.64,15.89a.67.67,0,0,1-.21.09,90.52,90.52,0,0,0-.93,17.55,113.45,113.45,0,0,1-.56,18.46,19.35,19.35,0,0,0,2.29-1.76,97.7,97.7,0,0,0,7.77-7.73c5.18-5.28,11.54-9.41,15.59-15.71.43-.66,1.39.08,1,.74-3.67,5.7-9.21,9.68-14.1,14.25-4.21,3.93-7.67,8.68-12.7,11.61q-.21,1.41-.48,2.85c-1.4,7.41-3.46,14.75-3.91,22.31a.56.56,0,0,1-.07.23L78.89,321A.53.53,0,0,1,78.86,320.8Z" transform="translate(-9.87)"/><path class="cls-24" d="M48.24,248.46c-3.81-10.8,1.87-21.45,8.82-29.52,11.88-13.82,32.14-24.31,31.76-45.05-.19-10.36-5-19.94-6.69-30A62.79,62.79,0,0,1,86,109.64c1.94-4.7,4.43-9.49,8.37-12.83,4.82-4.09,11.14-4.43,16.89-2.17,9.72,3.81,16.29,13.38,17.07,23.68.8,10.57-3.32,20.72-4.19,31.15-.77,9.34,2.08,17.3,6.92,25.15,5.32,8.62,11.44,16.63,13.07,26.91,1.75,11-1.17,21.49-7.25,30.64-5,7.53-11.48,14.65-13.5,23.72-2.25,10.09,2.26,20,3.79,29.81a35.2,35.2,0,0,1,0,10.45c-3.38,20.67-25.84,27.32-45.31,25.25L80,321.18a.56.56,0,0,0,.07-.23c.45-7.56,2.51-14.9,3.91-22.31q.27-1.44.48-2.85c5-2.93,8.49-7.68,12.7-11.61,4.89-4.57,10.43-8.55,14.1-14.25.42-.66-.54-1.4-1-.74-4.05,6.3-10.41,10.43-15.59,15.71a97.7,97.7,0,0,1-7.77,7.73,19.35,19.35,0,0,1-2.29,1.76,113.45,113.45,0,0,0,.56-18.46,90.52,90.52,0,0,1,.93-17.55.67.67,0,0,0,.21-.09c6.8-4.24,11.84-10.49,17.64-15.89,6.12-5.68,13.66-9.35,20.61-13.86.66-.43-.1-1.39-.75-1-6.8,4.42-14.21,8-20.24,13.53-2.88,2.63-5.53,5.51-8.3,8.24-1.34,1.32-2.7,2.62-4.12,3.85-1.21,1-2.83,2.79-4.35,3.34a1.36,1.36,0,0,1-.39.08c.23-1.28.49-2.56.79-3.84,1.7-7.26,3.35-14.53,6.29-21.4,2.2-5.15,4.83-10.14,7.28-15.2a.56.56,0,0,0,.48-.23c4.44-5.65,10.09-10.65,15.52-15.34,4.29-3.71,9.27-7.09,11.91-12.26.35-.71-.78-1.17-1.13-.47-2.92,5.72-8.89,9.22-13.46,13.5-4,3.71-8.09,7.28-11.7,11.33A69,69,0,0,0,108,195.83c2.49-14.25-.06-29.12-2.88-43.12-1.4-7-3.39-14-2.72-21.18s4.28-13.7,5.63-20.77c.15-.77-1.07-.91-1.21-.15-1.51,7.94-5.63,15.1-5.77,23.33-.12,7.51,2.11,14.95,3.52,22.27,2.84,14.68,5.16,30.65.86,45.27a87.81,87.81,0,0,1-5,12.73c-5.46-6.61-4.81-17-8.15-24.62a.61.61,0,0,0-1.12.48c3.45,7.89,2.72,18.66,8.7,25.33-3.52,7.28-7.44,14.38-9.95,22.08a152.74,152.74,0,0,0-4.68,18.65c-2.85-2.36-5.32-12.51-6-14.69-2.08-6.34-3.55-13.27-7-19-.4-.67-1.36.08-1,.75,3.7,6.09,5.29,13.7,7.43,20.46,1.46,4.59,2.74,10.49,6.32,14,0,.2-.07.4-.11.6-1.26,7.06-1,14.13-.7,21.26a89.08,89.08,0,0,1-.79,15.28,1.07,1.07,0,0,1-.32-.07c-.53-.24-1.15-1.42-1.49-1.87a89.47,89.47,0,0,1-7.67-13c-1.38-2.77-4.35-7.43-3.76-10.7.14-.77-1.07-.92-1.21-.15-.3,1.67.49,3.54,1.06,5.07A75.33,75.33,0,0,0,74,282.81c2.41,4.54,5,9.92,8.83,13.46a.51.51,0,0,0,.27.11c-.25,1.56-.52,3.13-.84,4.7-1.33,6.54-3,13-3.4,19.72a.53.53,0,0,0,0,.22l-.77-.13a53.1,53.1,0,0,1-13-3.8c-7.06-3.19-13.79-8.52-17.23-15.59-5.11-10.51,2.5-19,5.63-28.64a18.89,18.89,0,0,0,.36-11.4C52.6,256.89,49.82,252.93,48.24,248.46Z" transform="translate(-9.87)"/></g></g></g></g></svg>