<svg xmlns="http://www.w3.org/2000/svg" xmlns:xlink="http://www.w3.org/1999/xlink" viewBox="0 0 639.3 309.32"><defs><style>.cls-1{isolation:isolate;}.cls-2{fill:#e4ebf7;}.cls-3{fill:#fff;}.cls-4{fill:#98b2d8;}.cls-5{fill:#b1c3e8;}.cls-6{fill:#b7cae5;}.cls-7{fill:#97b3d1;}.cls-8{fill:#ced9ea;}.cls-9{fill:#b6c5dd;}.cls-10{fill:#5d7ca0;}.cls-11{fill:#799cbf;}.cls-12{fill:#f2f4f9;}.cls-13{fill:#c1cfe5;}.cls-14{fill:url(#linear-gradient);}.cls-15,.cls-18{fill:#1f395e;}.cls-15{opacity:0.22;}.cls-15,.cls-24,.cls-25,.cls-31,.cls-33,.cls-35,.cls-36{mix-blend-mode:multiply;}.cls-16{fill:url(#linear-gradient-2);}.cls-17{fill:url(#linear-gradient-3);}.cls-19{fill:url(#linear-gradient-4);}.cls-20{fill:#3150bc;}.cls-21{fill:#feb19e;}.cls-22{fill:#ff856a;}.cls-23{fill:url(#linear-gradient-5);}.cls-24,.cls-26,.cls-36{fill:#9abced;}.cls-24{opacity:0.6;}.cls-27{fill:#c1c8d3;}.cls-28{fill:url(#linear-gradient-6);}.cls-29{fill:url(#linear-gradient-7);}.cls-30{fill:#4f7eb7;}.cls-31,.cls-34{fill:#7ca6d8;}.cls-31{opacity:0.71;}.cls-32{fill:#ea9ba1;}.cls-33,.cls-36{opacity:0.5;}.cls-35{fill:#e83f54;}</style><linearGradient id="linear-gradient" x1="316.89" y1="292.53" x2="316.89" y2="195.65" gradientUnits="userSpaceOnUse"><stop offset="0" stop-color="#1f3a65"/><stop offset="1" stop-color="#294a7a"/></linearGradient><linearGradient id="linear-gradient-2" x1="258.44" y1="300.05" x2="258.44" y2="274" xlink:href="#linear-gradient"/><linearGradient id="linear-gradient-3" x1="367.71" y1="300.05" x2="367.71" y2="274" xlink:href="#linear-gradient"/><linearGradient id="linear-gradient-4" x1="336.16" y1="290.26" x2="302.34" y2="236.58" gradientUnits="userSpaceOnUse"><stop offset="0" stop-color="#3855e1"/><stop offset="1" stop-color="#5c7ef7"/></linearGradient><linearGradient id="linear-gradient-5" x1="310.73" y1="158.97" x2="309.65" y2="116.82" gradientUnits="userSpaceOnUse"><stop offset="0" stop-color="#3f2323"/><stop offset="1" stop-color="#5e3434"/></linearGradient><linearGradient id="linear-gradient-6" x1="445.23" y1="285.92" x2="466.16" y2="285.92" xlink:href="#linear-gradient"/><linearGradient id="linear-gradient-7" x1="475.12" y1="214.02" x2="448.55" y2="266.75" gradientUnits="userSpaceOnUse"><stop offset="0" stop-color="#e2e8f7"/><stop offset="1" stop-color="#fff"/></linearGradient></defs><title>OBJECTS</title><g class="cls-1"><g id="Camada_2" data-name="Camada 2"><g id="OBJECTS"><path class="cls-2" d="M568.09,180a314.88,314.88,0,0,1-3.37,49.73c-.16,1.11-.34,2.22-.53,3.3-1.19,7.2-2.64,13.91-4.28,20.11-.29,1.06-.58,2.11-.87,3.14-6.31,22.06-15.28,37-24.85,42.48H132.38s-34.25-29.69-41.12-72.11c-.18-1.08-.34-2.15-.47-3.25-2.67-21.11,1.63-45.15,20.13-70.16,8.44-11.38,19.53-19.31,32.27-24.76,1-.42,2-.83,3-1.21,18.89-7.39,41.08-9.71,63.37-10.07,1.12,0,2.25,0,3.38,0,13.27-.1,26.5.45,39,1,1.19.07,2.37.11,3.54.16,20.26.86,38.52,1.48,51.77-.95h0c1.22-.22,2.38-.48,3.51-.77h0c14.67-3.59,21.9-11.92,16.7-29.82-10.08-34.74.24-60.19,22.71-74.25,1.14-.73,2.33-1.42,3.54-2.08C366.48,3.56,382.54,0,400.7,0c1.27,0,2.56,0,3.87.06a176.3,176.3,0,0,1,49.8,9.33A157.91,157.91,0,0,1,480.7,20.84c1,.54,2,1.11,3,1.69a153.28,153.28,0,0,1,40.47,34c.76.87,1.48,1.76,2.2,2.66C555.21,94.75,567.8,140.69,568.09,180Z"/><path class="cls-3" d="M559.91,253.18c-.29,1.06-.58,2.11-.87,3.14A131.72,131.72,0,0,1,540.46,248c-29.47-16-67-51.65-78.36-130.69-4.89-34.07,1.35-66.52,18.6-96.48,1,.54,2,1.11,3,1.69C468.53,48.81,460,80.22,465.29,116.86c11.17,77.63,47.79,112.59,76.55,128.24A126.65,126.65,0,0,0,559.91,253.18Z"/><path class="cls-3" d="M564.72,229.77c-.16,1.11-.34,2.22-.53,3.3-18.61-8.74-42.07-27.76-53-69-10.58-40-6.36-75.47,13-107.52.76.87,1.48,1.76,2.2,2.66-18.37,31.05-22.28,65.39-12,104C524.76,202.7,546.93,221.15,564.72,229.77Z"/><path class="cls-3" d="M389,67.49c1.56,52.46-4.41,86.35-19.37,109.93-15.67,24.7-41.81,39.63-84.75,48.4a117.17,117.17,0,0,1-23.67,2.47c-24.17,0-46.94-7.88-66.89-23.27-23.21-17.92-41-44.91-51.16-76.5,1-.42,2-.83,3-1.21,10,31.06,27.39,57.6,50.15,75.16,25.57,19.76,56,26.74,87.93,20.21,79.87-16.34,104.54-54,101.55-155.1C385,38.89,390,16.25,400.7,0c1.27,0,2.56,0,3.87.06C393.39,15.85,388.17,38.45,389,67.49Z"/><path class="cls-3" d="M289.37,176.05a62.71,62.71,0,0,1-10.24.84c-25.75,0-55.23-15.61-69.58-59.65,1.12,0,2.25,0,3.38,0,15.81,47.28,49.71,60,75.91,55.67,35.39-5.8,69.43-42.24,62.85-98.36-2.84-24.07-3-44.62-1.45-62,1.14-.73,2.33-1.42,3.54-2.08-1.76,17.7-1.82,38.79,1.11,63.7C361.7,132.25,326.21,170,289.37,176.05Z"/><path class="cls-3" d="M310.82,116.6a41,41,0,0,1-7.14,16.26c-4.94,6.48-11.88,10.31-20.62,11.39a25.16,25.16,0,0,1-3.1.19,22.54,22.54,0,0,1-14.81-5.55c-5.83-4.9-10.08-12.5-13.17-20.73,1.19.07,2.37.11,3.54.16,2.87,7.28,6.67,13.87,11.71,18.1a19.44,19.44,0,0,0,15.42,4.64c7.86-1,14.06-4.38,18.47-10.13a36.68,36.68,0,0,0,6.17-13.56h0C308.53,117.15,309.69,116.89,310.82,116.6Z"/><path class="cls-3" d="M185.78,298.8h-3.51c-14.44-33.07-35.27-55.12-62-65.57a101.58,101.58,0,0,0-29-6.54c-.18-1.08-.34-2.15-.47-3.25a104.7,104.7,0,0,1,30.69,6.8C149.36,241.15,171,264.18,185.78,298.8Z"/><path class="cls-4" d="M116.08,199.12l-10,10.26L102,203.27l-1.38-2c-4.43,1.11-11-7.55-13.59-12.17s7.86-11.79,7.86-11.79c-1.71-5.12-8.57-8.34-8.76-9.76s1.51-2.91,7.74,0,11.68,13.29,11.68,13.29c1.11-3-3.82-11.16-2.92-12.08s5.74.21,9.45,8.05,1.52,17.12,1.52,17.12l.05.08Z"/><path class="cls-5" d="M94.49,176.37s7.39,8.46,6.6,11.78-4.53-.54-4.53-.54,3.43,4,2.32,5.27-5.23-2-5.23-2,4.93,6.14,0,5.24S82.52,185.89,87.28,185c0,0-.58-6.78,3.75-4.46C91,180.5,89.09,174.85,94.49,176.37Z"/><path class="cls-6" d="M184.33,298.86s8.33-24.32,3.95-48.29a.63.63,0,0,1,0-.16,1,1,0,0,0,0-.2c-.12-.62-.25-1.25-.38-1.88a101.17,101.17,0,0,1-11.5,8.41c-8,5-18.68,10-26.87,7.69-15-4.3-37-33.54-47.25-56.63a26.79,26.79,0,0,1,15.3-10s20.4,27.18,38.39,33.62A132.47,132.47,0,0,0,173.06,203c4.8-10.79,12-17.62,21.08-21.29a49.05,49.05,0,0,1,17.18-3.38l15.77-7.36a60.48,60.48,0,0,1,6.53.53c7.4,1,19.68,3.67,29.62,11.24,15.29,11.66,37.31,116.15,37.31,116.15Z"/><path class="cls-7" d="M188.25,250.41c-.13-.7-.28-1.39-.42-2.08a101.17,101.17,0,0,1-11.5,8.41L181,216.93C185.72,235.16,188,248.78,188.25,250.41Z"/><path class="cls-8" d="M233.62,171.47c-2.43,15.46-17.9,29.74-29.08,29.55-9-.16-10.3-13-10.4-19.34a49.05,49.05,0,0,1,17.18-3.38l15.77-7.36A60.48,60.48,0,0,1,233.62,171.47Z"/><path class="cls-7" d="M206.87,283.06s35.51-36.94,37-75.79L254.39,240l-4,34.09Z"/><path class="cls-4" d="M205.84,298.85H166.09a8.12,8.12,0,0,1,6.24-7.24c6.14-1.82,10.06-9.46,28.48-8.46Z"/><path class="cls-9" d="M246.51,262.32s-18.72,10.77-48.21,18.42c0,0-4.1,9.86,3.08,18.11h57.06Z"/><path class="cls-10" d="M176.78,149.41s-8.48-11.7-7.44-19.58,8.34-6,8.34-6-.34-19.15,17.38-14.25c0,0-.39-5.85,3.48-5.69s9.94,9,9.94,9,1.51-6.6,4.13-5,3.43,8.36,8.9,11.64,8.86,7.51,4.56,20.8-1.07,14.22-2.61,21c-1.45,6.48-2.62,10.42-6.64,10.78s-19.41-15.87-19.41-15.87Z"/><path class="cls-4" d="M227.09,170.94s-9.87,23.95-20.24,22.14c-5.16-.9-6.3-4-6.35-7.68-.05-4.75,1.8-10.32-1-12.66l12.43-17.66,2.74-3.9A64.35,64.35,0,0,0,227.09,170.94Z"/><path class="cls-11" d="M200.5,185.4c-.05-4.75,1.8-10.32-1-12.66l12.43-17.66c1.07,1.24,1.82,3.45,2.13,6.91C215.7,180.23,206.06,184.47,200.5,185.4Z"/><path class="cls-4" d="M175.57,140.1s3.36,30.84,16,37.79c10.94,6,24.22-12.22,23.95-21.25,0,0,4.77-3.64,4-9.53s-7-3.94-7.77,5.56c0,0-5.07-.36-6-12.24-3.18,2.64-6.62,1.83-10.22-1.38,0,0-1.79,6.61-11-1.11C184.45,137.94,181,142.66,175.57,140.1Z"/><path class="cls-10" d="M472.44,259.6s16.25,27.11,21.88,40.26H437a234.53,234.53,0,0,0-9-31.07Z"/><path class="cls-11" d="M450.1,265.64c-3.14,10.39-7.92,19.26-15,26l1.94,8.23L367.71,299l7.71-47.45Z"/><path class="cls-11" d="M558.85,117.71s2.29-14.37,6.85-19.47,17-12.64,18.52-10-11,11.1-11,11.1,5.63-1.34,10.46,7S573,121.12,573,121.12l-3.09,7-12.34-7.79Z"/><path class="cls-4" d="M574.81,99.65s-7,7.08-5.94,9.1,4.85-1.16,4.85-1.16-3.13,4.77-.7,6,6.18-2.88,6.18-2.88-3.13,4.33-1.33,5.12,11.42-6,9.7-7.58-2.66-.29-2.66-.29,2-3.39,0-4.47a2.32,2.32,0,0,0-3.28.94s1.64-2.6.31-3.61-4.15.29-4.15.29S578.72,96.77,574.81,99.65Z"/><path class="cls-4" d="M568.35,99.48c-2.11-.6-6.4,3.79-6.4,3.79-1.69,2.18-2,6.5-2.11,8.5-.21,5.58-2.32,8.54-2.32,8.54l6.26,4c4.85-6.25,3.27-14.25,2.48-17.08C568.63,103.64,569.61,99.84,568.35,99.48Z"/><path class="cls-6" d="M572.41,129.57s-20.94,55.75-54.2,60.69a170.94,170.94,0,0,1-34,2c-9.37-.49-14-1.9-14.32-2,0,0,0,0,0,0s-9.13,17-3.22,41.44,8.05,29.51,8.05,29.51-44.85,33-81.32,3L360.5,213l-10.31-16s9.47-31.1,36.17-51.31h0a81.76,81.76,0,0,1,38-16,96.5,96.5,0,0,1,26-.24s7.25,2.05,19,6.36c6.35,2.32,14,5.3,22.56,9C516.32,155.21,523,158.33,523,158.33s26-25.67,32.73-41.24C555.77,117.09,569.19,118.45,572.41,129.57Z"/><path class="cls-7" d="M404.46,155c-.12,12.49-2.79,24.6-4,34l20.69-4.19,32.19,31.82s4.07,9.33-4.23,10.94c-6.5,1.26-36.9,5.49-36.9,5.49-7,9.53-10.17,24.12-13.67,38.27l-30.86-53.63Z"/><path class="cls-8" d="M450.3,158c-14.41-3.66-22-16.62-26-28.38a96.5,96.5,0,0,1,26-.24s7.25,2.05,19,6.36C470.72,146.06,470.22,163.07,450.3,158Z"/><path class="cls-7" d="M488.14,169.43a157.31,157.31,0,0,0-3.91,22.85c-9.37-.49-14-1.9-14.32-2,0,0,0,0,0,0S478.08,176.27,488.14,169.43Z"/><rect class="cls-12" x="409.84" y="165.71" width="40.22" height="59.18" rx="1.95" transform="matrix(0.99, -0.14, 0.14, 0.99, -23.59, 63.78)"/><path class="cls-4" d="M426,187.14l5.5-2.15s5.24-14.49,11.75-5.36c0,0,4.49-2.69,4.36-4.16s-.2-3.63-.2-3.63,9.1,2,7.07,14.67-9.82,11.1-17.47,11.23l-9.53,3.76Z"/><path class="cls-13" d="M429.56,204.85s-42.86,28.38-61.38,14.69A72.87,72.87,0,0,1,360.5,213l-10.31-16s9.47-31.1,36.17-51.31h0c8.85-4,18.1-2.53,18.58,5.67,1.13,19.53-15.58,31.54-17.64,40.4l38.42-7.78S432,190.55,429.56,204.85Z"/><path class="cls-10" d="M480,99.7s6.12-13.09,3.62-20.63-9.32-4.35-9.32-4.35S471,55.85,454.5,64c0,0-.72-5.82-4.49-4.94S442,69.81,442,69.81s-2.72-6.19-5-4.17-1.8,8.86-6.56,13.1-7.29,9.05-.57,21.29,3.73,13.77,6.52,20.18c2.65,6.08,4.54,9.74,8.55,9.34S461,110.31,461,110.31Z"/><path class="cls-4" d="M434.59,130.31s9.47,23.35,24.37,19.53c5.06-1.31,5.09-6.75,4.46-10.33-.85-4.68-3.72-9.8-1.4-12.62l-15.53-15-3.43-3.31A64.34,64.34,0,0,1,434.59,130.31Z"/><path class="cls-11" d="M463.42,139.51c-.85-4.68-3.72-9.8-1.4-12.62l-15.53-15c-.82,1.42-1.14,3.72-.79,7.18C447.51,137.29,457.78,139.64,463.42,139.51Z"/><path class="cls-4" d="M479.38,90.33s2.5,30.92-8.55,40.11c-9.61,8-26.09-7.45-27.53-16.36,0,0-5.36-2.68-5.69-8.62s6.16-5.19,8.68,4c0,0,4.91-1.31,3.6-13.14,3.62,2,6.84.54,9.78-3.28,0,0,3,6.15,10.59-3.17C470.26,89.87,474.56,93.85,479.38,90.33Z"/><path class="cls-14" d="M400.75,281.76h0a21,21,0,0,1-2,5.21c-7.77,14.21-41.46,11.88-41.46,11.88H280.42c-31.82,0-44.57-.79-47.62-10.72a16.25,16.25,0,0,1-.42-1.7c-2.15-11.54,8.59-49.11,28.44-74.87,10.16-13.17,20.66-20.11,30-23.74a60.33,60.33,0,0,1,22.36-3.91c9.76,0,17.64.72,24.32,2.29,17.94,4.2,27.32,14.34,41.4,32.33C396.13,240.52,404.6,266.33,400.75,281.76Z"/><path class="cls-15" d="M265.52,272.64c8.35-13.13,11-31.33,13.29-49.81l7.24,37.58h62.8l11.54-37.58c-.27,17.56,2.14,34.79,10.47,51.26C370.86,274.09,329.8,320.56,265.52,272.64Z"/><path class="cls-16" d="M284.59,298.86h-4.17c-31.82,0-44.57-.79-47.62-10.72-1.66-7.81.45-16,10-18.47,14.91-3.84,40.87,11.27,40.87,11.27Z"/><path class="cls-17" d="M400.75,281.76s0,0,0,0a21,21,0,0,1-2,5.21c-7.77,14.21-41.46,11.88-41.46,11.88H334.49l2.9-19.32s40.45-18.73,54.94-12.89C399.42,269.5,401.59,275.43,400.75,281.76Z"/><path class="cls-18" d="M337.52,186.21c-.68,9-4.41,25.49-22.61,25.49-19.18,0-23.24-16.22-24.07-23.87a60.33,60.33,0,0,1,22.36-3.91C323,183.92,330.84,184.64,337.52,186.21Z"/><path class="cls-3" d="M354.09,298.85H280.42a3.22,3.22,0,0,1-3.22-3.22h0a3.22,3.22,0,0,1,3.22-3.22h73.67a3.22,3.22,0,0,1,3.22,3.22h0A3.22,3.22,0,0,1,354.09,298.85Z"/><path class="cls-19" d="M363,243.47l-.27,1.67v0l-7.64,47.26H280l-7.56-49a4,4,0,0,1,3.92-4.57H359.1A4,4,0,0,1,363,243.47Z"/><path class="cls-20" d="M362.74,245.16l-7.64,47.26H280.42l25.31-2.64A68.11,68.11,0,0,0,362.74,245.16Z"/><path class="cls-21" d="M314.6,204.85h-.49a17.62,17.62,0,0,1-7.25-1.46,13.07,13.07,0,0,1-7.49-12.26c0-.53,0-1,0-1.56,0-4.3-.26-7.87-.26-7.87v-1.94l27.05-1.2a63,63,0,0,0,1.08,10.13.53.53,0,0,1,0,.12A13.41,13.41,0,0,1,314.6,204.85Z"/><path class="cls-22" d="M327.26,188.69c-11.27,13.23-22.85,5.5-27.87.88,0-4.3-.26-7.87-.26-7.87v-1.94l27.05-1.2A63,63,0,0,0,327.26,188.69Z"/><path class="cls-21" d="M290.85,166.62s8.39,23.64,22.38,23.64S333,164.8,333,164.8V142.66H289.78Z"/><path class="cls-21" d="M286.35,153.28s-4.12.75-3.42,5.48,5,10.47,8.49,7.45Z"/><path class="cls-21" d="M336.3,151.3s4.18.18,4.13,5-3.53,11-7.4,8.53Z"/><path class="cls-23" d="M336.3,151.3A111.17,111.17,0,0,1,333,164.8s-3.31-.67-4.39-9.39A11.86,11.86,0,0,1,317,150s-1.07,6.71-8,1.94c-4.61,3.77-10.06,4.16-16.24,1.61,0,0,1,8.8-1.91,13,0,0-1.07-3.48-4.5-13.34a3.31,3.31,0,0,0-2.41,1.39s-7.41-14.5-3.92-21.47,8.18-4.3,8.18-4.3-1.74-9.53,8.59-13,10.33-8.19,11.94-7.25,2.28,4.43,2.28,4.43,17.85-1.88,22.68,17.31c0,0,12.89.41,5.24,22C338.93,152.39,338.43,151.5,336.3,151.3Z"/><path class="cls-24" d="M267.34,171.39H199.9a4,4,0,0,0-4,4v40.25a4,4,0,0,0,4,4h46.52l12.14,10.75a1.19,1.19,0,0,0,1.91-1.28l-3.28-9.47h10.15a4,4,0,0,0,4-4V175.37A4,4,0,0,0,267.34,171.39Z"/><g class="cls-25"><path class="cls-26" d="M220.82,182.16H205.29a1.05,1.05,0,0,1-1.06-1.06h0a1.06,1.06,0,0,1,1.06-1.06h15.53a1.06,1.06,0,0,1,1.06,1.06h0A1.05,1.05,0,0,1,220.82,182.16Z"/><path class="cls-26" d="M259.14,191.34h-45a1.05,1.05,0,0,1-1.06-1.06h0a1.05,1.05,0,0,1,1.06-1.05h45a1,1,0,0,1,1.05,1.05h0A1.05,1.05,0,0,1,259.14,191.34Z"/><path class="cls-26" d="M259.14,197.88H205.29a1.06,1.06,0,0,1-1.06-1.06h0a1.05,1.05,0,0,1,1.06-1.06h53.85a1.05,1.05,0,0,1,1.05,1.06h0A1.06,1.06,0,0,1,259.14,197.88Z"/><path class="cls-26" d="M259.14,204.41H205.29a1.06,1.06,0,0,1-1.06-1.06h0a1.05,1.05,0,0,1,1.06-1.06h53.85a1.05,1.05,0,0,1,1.05,1.06h0A1.06,1.06,0,0,1,259.14,204.41Z"/><path class="cls-26" d="M259.14,210.94H205.29a1.05,1.05,0,0,1-1.06-1.06h0a1.06,1.06,0,0,1,1.06-1.06h53.85a1.06,1.06,0,0,1,1.05,1.06h0A1.05,1.05,0,0,1,259.14,210.94Z"/></g><rect class="cls-27" x="75.07" y="298.85" width="493.01" height="10.47" rx="1.75"/><path class="cls-28" d="M445.23,273h20.93a0,0,0,0,1,0,0v18.12a7.65,7.65,0,0,1-7.65,7.65h-5.64a7.65,7.65,0,0,1-7.65-7.65V273A0,0,0,0,1,445.23,273Z"/><path class="cls-29" d="M451.87,273v-5.59a1.66,1.66,0,0,1,1.66-1.66h2.12a1.66,1.66,0,0,0,1.66-1.66V262a1.66,1.66,0,0,0-1.66-1.66h-6.8a8.45,8.45,0,0,1-8.45-8.46h0a8.45,8.45,0,0,1,8.45-8.45h9a1.66,1.66,0,0,0,1.66-1.66V241a8.76,8.76,0,0,1,8.76-8.75h0A8.75,8.75,0,0,1,477,241h0a9.45,9.45,0,0,1-9.46,9.46H451.72a1.66,1.66,0,0,0-1.66,1.66h0a1.66,1.66,0,0,0,1.66,1.66h8.66a5.79,5.79,0,0,1,5.78,5.79v3.62a5.78,5.78,0,0,1-5.78,5.79h0a1.66,1.66,0,0,0-1.66,1.66V273Z"/><rect class="cls-24" x="378.03" y="166.31" width="62.6" height="77.09" rx="3.82"/><path class="cls-30" d="M440.29,240.85h-55a4.64,4.64,0,0,1-4.63-4.63V166.78a4.64,4.64,0,0,1,4.63-4.63h55a4.64,4.64,0,0,1,4.63,4.63v69.44A4.64,4.64,0,0,1,440.29,240.85Zm-55-77.09a3,3,0,0,0-3,3v69.44a3,3,0,0,0,3,3h55a3,3,0,0,0,3-3V166.78a3,3,0,0,0-3-3Z"/><g class="cls-25"><path class="cls-31" d="M399.63,191H387.42V176.35h12.21ZM389,189.36h9V178h-9Z"/><path class="cls-32" d="M396.56,186.44l-3.63-4.05,1.2-1.08,2.2,2.46a21.51,21.51,0,0,1,9-6.56l.61,1.49c-6.47,2.67-8.84,6.73-8.87,6.77Z"/><path class="cls-26" d="M430.78,181.83H411.83a1.19,1.19,0,0,1-1.19-1.2h0a1.19,1.19,0,0,1,1.19-1.2h18.95a1.19,1.19,0,0,1,1.19,1.2h0A1.19,1.19,0,0,1,430.78,181.83Z"/><path class="cls-26" d="M430.78,187.63H411.83a1.19,1.19,0,0,1-1.19-1.19h0a1.19,1.19,0,0,1,1.19-1.2h18.95a1.19,1.19,0,0,1,1.19,1.2h0A1.19,1.19,0,0,1,430.78,187.63Z"/></g><g class="cls-25"><path class="cls-31" d="M399.63,213.38H387.42V198.76h12.21ZM389,211.77h9v-11.4h-9Z"/><path class="cls-32" d="M396.56,208.85l-3.63-4,1.2-1.08,2.2,2.46a21.51,21.51,0,0,1,9-6.56l.61,1.49c-6.47,2.67-8.84,6.73-8.87,6.77Z"/><path class="cls-26" d="M430.78,204.24H411.83a1.19,1.19,0,0,1-1.19-1.2h0a1.19,1.19,0,0,1,1.19-1.2h18.95A1.19,1.19,0,0,1,432,203h0A1.19,1.19,0,0,1,430.78,204.24Z"/><path class="cls-26" d="M430.78,210H411.83a1.19,1.19,0,0,1-1.19-1.19h0a1.19,1.19,0,0,1,1.19-1.2h18.95a1.19,1.19,0,0,1,1.19,1.2h0A1.19,1.19,0,0,1,430.78,210Z"/></g><g class="cls-25"><path class="cls-31" d="M399.63,235.79H387.42V221.17h12.21ZM389,234.18h9v-11.4h-9Z"/><path class="cls-32" d="M396.56,231.26l-3.63-4,1.2-1.08,2.2,2.46a21.51,21.51,0,0,1,9-6.56l.61,1.49c-6.47,2.66-8.84,6.72-8.87,6.77Z"/><path class="cls-26" d="M430.78,226.64H411.83a1.19,1.19,0,0,1-1.19-1.19h0a1.19,1.19,0,0,1,1.19-1.2h18.95a1.19,1.19,0,0,1,1.19,1.2h0A1.19,1.19,0,0,1,430.78,226.64Z"/><path class="cls-26" d="M430.78,232.45H411.83a1.19,1.19,0,0,1-1.19-1.19h0a1.19,1.19,0,0,1,1.19-1.2h18.95a1.19,1.19,0,0,1,1.19,1.2h0A1.19,1.19,0,0,1,430.78,232.45Z"/></g><rect class="cls-24" x="571.07" y="60.11" width="62.6" height="77.09" rx="3.82"/><path class="cls-30" d="M634.67,133.62H579.72a4.64,4.64,0,0,1-4.63-4.63V59.55a4.63,4.63,0,0,1,4.63-4.63h54.95a4.63,4.63,0,0,1,4.63,4.63V129A4.64,4.64,0,0,1,634.67,133.62ZM579.72,56.53a3,3,0,0,0-3,3V129a3,3,0,0,0,3,3h54.95a3,3,0,0,0,3-3V59.55a3,3,0,0,0-3-3Z"/><g class="cls-33"><circle class="cls-34" cx="588.21" cy="80.71" r="9.66" transform="translate(373.97 634.43) rotate(-76.66)"/><path class="cls-35" d="M590.76,79.44,597.2,68c5.9,1.48,8.72,7.05,5.9,12.75Z"/><path class="cls-26" d="M584.72,100.84A2.82,2.82,0,1,1,581.9,98,2.82,2.82,0,0,1,584.72,100.84Z"/><path class="cls-26" d="M584.72,113.32a2.82,2.82,0,1,1-2.82-2.82A2.82,2.82,0,0,1,584.72,113.32Z"/><path class="cls-26" d="M621.49,103.66H599a2.82,2.82,0,0,1-2.82-2.82h0A2.82,2.82,0,0,1,599,98h22.54a2.82,2.82,0,0,1,2.82,2.82h0A2.82,2.82,0,0,1,621.49,103.66Z"/><path class="cls-26" d="M621.49,116.14H599a2.82,2.82,0,0,1-2.82-2.82h0A2.82,2.82,0,0,1,599,110.5h22.54a2.82,2.82,0,0,1,2.82,2.82h0A2.82,2.82,0,0,1,621.49,116.14Z"/><path class="cls-26" d="M584.72,126a2.82,2.82,0,1,1-2.82-2.82A2.82,2.82,0,0,1,584.72,126Z"/><path class="cls-26" d="M621.49,128.82H599a2.82,2.82,0,0,1-2.82-2.82h0a2.82,2.82,0,0,1,2.82-2.82h22.54a2.82,2.82,0,0,1,2.82,2.82h0A2.82,2.82,0,0,1,621.49,128.82Z"/></g><rect class="cls-24" x="101.08" y="24.61" width="62.6" height="89.97" rx="3.82"/><path class="cls-30" d="M156.37,111.9H101.42a4.63,4.63,0,0,1-4.63-4.63V25a4.63,4.63,0,0,1,4.63-4.63h55A4.63,4.63,0,0,1,161,25v82.32A4.64,4.64,0,0,1,156.37,111.9Zm-54.95-90a3,3,0,0,0-3,3v82.32a3,3,0,0,0,3,3h55a3,3,0,0,0,3-3V25a3,3,0,0,0-3-3Z"/><path class="cls-34" d="M122.88,50.33h3.47a0,0,0,0,1,0,0V62.47a1.21,1.21,0,0,1-1.21,1.21h-1.05a1.21,1.21,0,0,1-1.21-1.21V50.33A0,0,0,0,1,122.88,50.33Z" transform="translate(-6.41 97.14) rotate(-41.61)"/><path class="cls-34" d="M116.07,36.49a9.26,9.26,0,1,0,9.26,9.26A9.26,9.26,0,0,0,116.07,36.49Zm0,15.57a6.32,6.32,0,1,1,6.31-6.31A6.32,6.32,0,0,1,116.07,52.06Z"/><path class="cls-26" d="M153.58,41.59H139a1.68,1.68,0,0,1-1.68-1.68h0A1.68,1.68,0,0,1,139,38.23h14.62a1.68,1.68,0,0,1,1.68,1.68h0A1.68,1.68,0,0,1,153.58,41.59Z"/><path class="cls-26" d="M153.58,50.31H139a1.68,1.68,0,0,1-1.68-1.68h0A1.68,1.68,0,0,1,139,47h14.62a1.68,1.68,0,0,1,1.68,1.68h0A1.68,1.68,0,0,1,153.58,50.31Z"/><path class="cls-26" d="M153.58,58.36H139a1.68,1.68,0,0,1-1.68-1.68h0A1.68,1.68,0,0,1,139,55h14.62a1.68,1.68,0,0,1,1.68,1.68h0A1.68,1.68,0,0,1,153.58,58.36Z"/><path class="cls-26" d="M135.37,80.77H112.82a1.92,1.92,0,0,1-1.91-1.91h0a1.92,1.92,0,0,1,1.91-1.92h22.55a1.92,1.92,0,0,1,1.91,1.92h0A1.92,1.92,0,0,1,135.37,80.77Z"/><path class="cls-26" d="M135.37,92.74H112.82a1.91,1.91,0,0,1-1.91-1.91h0a1.92,1.92,0,0,1,1.91-1.91h22.55a1.92,1.92,0,0,1,1.91,1.91h0A1.91,1.91,0,0,1,135.37,92.74Z"/><path class="cls-26" d="M135.37,104.72H112.82a1.92,1.92,0,0,1-1.91-1.91h0a1.91,1.91,0,0,1,1.91-1.91h22.55a1.91,1.91,0,0,1,1.91,1.91h0A1.92,1.92,0,0,1,135.37,104.72Z"/><path class="cls-26" d="M153,78.86A3.07,3.07,0,1,1,150,75.79,3.07,3.07,0,0,1,153,78.86Z"/><path class="cls-26" d="M153,90.83A3.07,3.07,0,1,1,150,87.76,3.06,3.06,0,0,1,153,90.83Z"/><path class="cls-26" d="M153,102.81A3.07,3.07,0,1,1,150,99.74,3.07,3.07,0,0,1,153,102.81Z"/><rect class="cls-24" x="321.07" y="35.73" width="113.93" height="80.11" rx="6.64"/><path class="cls-30" d="M431.84,113H331.2a7.46,7.46,0,0,1-7.45-7.45V38.68a7.45,7.45,0,0,1,7.45-7.44H431.84a7.46,7.46,0,0,1,7.45,7.44v66.83A7.46,7.46,0,0,1,431.84,113ZM331.2,32.85a5.84,5.84,0,0,0-5.84,5.83v66.83a5.85,5.85,0,0,0,5.84,5.84H431.84a5.85,5.85,0,0,0,5.84-5.84V38.68a5.84,5.84,0,0,0-5.84-5.83Z"/><path class="cls-36" d="M391.11,52H335.36a2.92,2.92,0,0,1-2.92-2.92h0a2.92,2.92,0,0,1,2.92-2.92h55.75A2.92,2.92,0,0,1,394,49.12h0A2.92,2.92,0,0,1,391.11,52Z"/><rect class="cls-31" x="332.44" y="62.3" width="61.59" height="32.61" rx="2.06"/><path class="cls-36" d="M420.7,52H404.2a2.92,2.92,0,0,1-2.92-2.92h0a2.91,2.91,0,0,1,2.92-2.92h16.5a2.92,2.92,0,0,1,2.92,2.92h0A2.92,2.92,0,0,1,420.7,52Z"/><path class="cls-36" d="M421.81,67.53H404.46a1.81,1.81,0,0,1-1.81-1.81h0a1.81,1.81,0,0,1,1.81-1.81h17.35a1.81,1.81,0,0,1,1.81,1.81h0A1.81,1.81,0,0,1,421.81,67.53Z"/><path class="cls-36" d="M421.81,75.72H404.46a1.81,1.81,0,0,1-1.81-1.81h0a1.81,1.81,0,0,1,1.81-1.81h17.35a1.81,1.81,0,0,1,1.81,1.81h0A1.81,1.81,0,0,1,421.81,75.72Z"/><path class="cls-36" d="M421.81,83.9H404.46a1.81,1.81,0,0,1-1.81-1.81h0a1.81,1.81,0,0,1,1.81-1.81h17.35a1.81,1.81,0,0,1,1.81,1.81h0A1.81,1.81,0,0,1,421.81,83.9Z"/><path class="cls-36" d="M421.81,92.09H404.46a1.81,1.81,0,0,1-1.81-1.81h0a1.81,1.81,0,0,1,1.81-1.81h17.35a1.81,1.81,0,0,1,1.81,1.81h0A1.81,1.81,0,0,1,421.81,92.09Z"/><path class="cls-36" d="M410,107.66H345.82a2.42,2.42,0,0,1-2.41-2.42h0a2.41,2.41,0,0,1,2.41-2.41H410a2.41,2.41,0,0,1,2.42,2.41h0A2.42,2.42,0,0,1,410,107.66Z"/><rect class="cls-24" x="4.71" y="129.39" width="106.01" height="68.44" rx="5.37"/><path class="cls-30" d="M101.45,194.67H6.17A6.18,6.18,0,0,1,0,188.5V130.8a6.17,6.17,0,0,1,6.17-6.17h95.28a6.17,6.17,0,0,1,6.17,6.17v57.7A6.18,6.18,0,0,1,101.45,194.67ZM6.17,126.24a4.56,4.56,0,0,0-4.56,4.56v57.7a4.57,4.57,0,0,0,4.56,4.56h95.28A4.57,4.57,0,0,0,106,188.5V130.8a4.56,4.56,0,0,0-4.56-4.56Z"/><g class="cls-33"><path class="cls-34" d="M42.86,161a13.65,13.65,0,1,1-5.28-22.59l-4.38,13Z"/><path class="cls-35" d="M48.67,150.28a11.49,11.49,0,0,1-3.41,8.19l-8.2-8.19,3.72-11A11.6,11.6,0,0,1,48.67,150.28Z"/><path class="cls-26" d="M94.82,165.8H63.42V139.29a.81.81,0,1,1,1.61,0v24.9H94.82a.81.81,0,0,1,0,1.61Z"/><rect class="cls-26" x="69.99" y="152.14" width="4.03" height="12.05"/><rect class="cls-35" x="78.31" y="146.03" width="4.03" height="18.16"/><rect class="cls-26" x="86.5" y="155.11" width="4.03" height="9.08"/><rect class="cls-26" x="18.87" y="175.28" width="21.74" height="2.82" rx="1.41"/><rect class="cls-26" x="47.72" y="175.28" width="21.74" height="2.82" rx="1.41"/><rect class="cls-26" x="74.83" y="175.28" width="21.74" height="2.82" rx="1.41"/><path class="cls-26" d="M51.61,188.16H32.69a1.41,1.41,0,0,1-1.41-1.4h0a1.41,1.41,0,0,1,1.41-1.41H51.61A1.41,1.41,0,0,1,53,186.76h0A1.41,1.41,0,0,1,51.61,188.16Z"/><path class="cls-26" d="M78.72,188.16H59.8a1.41,1.41,0,0,1-1.41-1.4h0a1.41,1.41,0,0,1,1.41-1.41H78.72a1.41,1.41,0,0,1,1.41,1.41h0A1.41,1.41,0,0,1,78.72,188.16Z"/></g></g></g></g></svg>